<svg xmlns="http://www.w3.org/2000/svg" xmlns:xlink="http://www.w3.org/1999/xlink" width="500" zoomAndPan="magnify" viewBox="0 0 375 374.999991" height="500" preserveAspectRatio="xMidYMid meet" version="1.0"><defs><clipPath id="ec0c1b68ab"><path d="M 24 0 L 351 0 C 357.363281 0 363.46875 2.527344 367.96875 7.03125 C 372.472656 11.53125 375 17.636719 375 24 L 375 351 C 375 357.363281 372.472656 363.46875 367.96875 367.96875 C 363.46875 372.472656 357.363281 375 351 375 L 24 375 C 17.636719 375 11.53125 372.472656 7.03125 367.96875 C 2.527344 363.46875 0 357.363281 0 351 L 0 24 C 0 17.636719 2.527344 11.53125 7.03125 7.03125 C 11.53125 2.527344 17.636719 0 24 0 Z M 24 0 " clip-rule="nonzero"/></clipPath><clipPath id="981cf988ef"><path d="M 0 0 L 375 0 L 375 375 L 0 375 Z M 0 0 " clip-rule="nonzero"/></clipPath><clipPath id="de6946735c"><path d="M 24 0 L 351 0 C 357.363281 0 363.46875 2.527344 367.96875 7.03125 C 372.472656 11.53125 375 17.636719 375 24 L 375 351 C 375 357.363281 372.472656 363.46875 367.96875 367.96875 C 363.46875 372.472656 357.363281 375 351 375 L 24 375 C 17.636719 375 11.53125 372.472656 7.03125 367.96875 C 2.527344 363.46875 0 357.363281 0 351 L 0 24 C 0 17.636719 2.527344 11.53125 7.03125 7.03125 C 11.53125 2.527344 17.636719 0 24 0 Z M 24 0 " clip-rule="nonzero"/></clipPath><clipPath id="a1ee2331fe"><rect x="0" width="375" y="0" height="375"/></clipPath><clipPath id="667a9f59a7"><path d="M 0 6.167969 L 369 6.167969 L 369 375 L 0 375 Z M 0 6.167969 " clip-rule="nonzero"/></clipPath></defs><g clip-path="url(#ec0c1b68ab)"><g transform="matrix(1, 0, 0, 1, 0, 0)"><g clip-path="url(#a1ee2331fe)"><g clip-path="url(#981cf988ef)"><g clip-path="url(#de6946735c)"><rect x="-82.5" width="540" fill="#3b82f5" height="539.999987" y="-82.499998" fill-opacity="1"/></g></g></g></g></g><g clip-path="url(#667a9f59a7)"><path fill="#3b82f5" d="M 337.933594 374.992188 L 30.886719 374.992188 C 13.855469 374.992188 0 361.136719 0 344.105469 L 0 37.058594 C 0 20.023438 13.855469 6.167969 30.886719 6.167969 L 337.933594 6.167969 C 354.96875 6.167969 368.824219 20.023438 368.824219 37.058594 L 368.824219 344.105469 C 368.824219 361.136719 354.96875 374.992188 337.933594 374.992188 " fill-opacity="1" fill-rule="nonzero"/></g><path fill="#3b82f5" d="M 341.773438 9.035156 L 34.726562 9.035156 C 21.394531 9.035156 10.542969 19.882812 10.542969 33.21875 L 10.542969 340.265625 C 10.542969 353.601562 21.394531 364.445312 34.726562 364.445312 L 341.773438 364.445312 C 355.109375 364.445312 365.957031 353.601562 365.957031 340.265625 L 365.957031 33.21875 C 365.957031 19.882812 355.109375 9.035156 341.773438 9.035156 " fill-opacity="1" fill-rule="nonzero"/><path fill="#0a0e1a" d="M 283.550781 317.097656 L 302.082031 317.097656 C 304.640625 317.097656 306.714844 319.175781 306.714844 321.730469 C 306.714844 324.289062 304.640625 326.363281 302.082031 326.363281 L 283.550781 326.363281 C 280.988281 326.363281 278.914062 324.289062 278.914062 321.730469 C 278.914062 319.175781 280.988281 317.097656 283.550781 317.097656 Z M 269.648438 335.632812 L 337.140625 335.632812 L 337.140625 242.550781 L 269.648438 242.550781 L 269.648438 335.632812 " fill-opacity="1" fill-rule="nonzero"/><path fill="#0a0e1a" d="M 206.785156 317.097656 L 225.320312 317.097656 C 227.878906 317.097656 229.953125 319.175781 229.953125 321.730469 C 229.953125 324.289062 227.878906 326.363281 225.320312 326.363281 L 206.785156 326.363281 C 204.230469 326.363281 202.152344 324.289062 202.152344 321.730469 C 202.152344 319.175781 204.230469 317.097656 206.785156 317.097656 Z M 192.882812 335.632812 L 260.378906 335.632812 L 260.378906 242.550781 L 192.882812 242.550781 L 192.882812 335.632812 " fill-opacity="1" fill-rule="nonzero"/><path fill="#0a0e1a" d="M 53.257812 317.097656 L 71.796875 317.097656 C 74.355469 317.097656 76.429688 319.175781 76.429688 321.730469 C 76.429688 324.289062 74.355469 326.363281 71.796875 326.363281 L 53.257812 326.363281 C 50.703125 326.363281 48.628906 324.289062 48.628906 321.730469 C 48.628906 319.175781 50.703125 317.097656 53.257812 317.097656 Z M 39.359375 335.632812 L 183.617188 335.632812 L 183.617188 191.386719 L 39.359375 191.386719 L 39.359375 335.632812 " fill-opacity="1" fill-rule="nonzero"/><path fill="#0a0e1a" d="M 206.785156 214.75 L 225.320312 214.75 C 227.878906 214.75 229.953125 216.824219 229.953125 219.382812 C 229.953125 221.941406 227.878906 224.015625 225.320312 224.015625 L 206.785156 224.015625 C 204.230469 224.015625 202.152344 221.941406 202.152344 219.382812 C 202.152344 216.824219 204.230469 214.75 206.785156 214.75 Z M 192.882812 233.285156 L 337.140625 233.285156 L 337.140625 140.199219 L 192.882812 140.199219 L 192.882812 233.285156 " fill-opacity="1" fill-rule="nonzero"/><path fill="#0a0e1a" d="M 206.785156 112.398438 L 225.320312 112.398438 C 227.878906 112.398438 229.953125 114.476562 229.953125 117.035156 C 229.953125 119.589844 227.878906 121.667969 225.320312 121.667969 L 206.785156 121.667969 C 204.230469 121.667969 202.152344 119.589844 202.152344 117.035156 C 202.152344 114.476562 204.230469 112.398438 206.785156 112.398438 Z M 71.796875 172.851562 L 53.257812 172.851562 C 50.703125 172.851562 48.628906 170.773438 48.628906 168.21875 C 48.628906 165.65625 50.703125 163.585938 53.257812 163.585938 L 71.796875 163.585938 C 74.355469 163.585938 76.429688 165.65625 76.429688 168.21875 C 76.429688 170.773438 74.355469 172.851562 71.796875 172.851562 Z M 192.882812 117.035156 C 192.882812 119.589844 190.808594 121.667969 188.253906 121.667969 C 185.691406 121.667969 183.617188 119.589844 183.617188 117.035156 L 183.617188 37.851562 L 39.359375 37.851562 L 39.359375 182.117188 L 183.617188 182.117188 L 183.617188 135.566406 C 183.617188 133.011719 185.691406 130.933594 188.253906 130.933594 L 337.140625 130.933594 L 337.140625 37.851562 L 192.882812 37.851562 L 192.882812 117.035156 " fill-opacity="1" fill-rule="nonzero"/><path fill="#0a0e1a" d="M 346.410156 340.265625 C 346.410156 342.824219 344.332031 344.898438 341.773438 344.898438 L 34.726562 344.898438 C 32.171875 344.898438 30.09375 342.824219 30.09375 340.265625 L 30.09375 33.21875 C 30.09375 30.660156 32.171875 28.582031 34.726562 28.582031 L 341.773438 28.582031 C 344.332031 28.582031 346.410156 30.660156 346.410156 33.21875 Z M 341.773438 19.09375 L 34.726562 19.09375 C 26.9375 19.09375 20.601562 25.429688 20.601562 33.21875 L 20.601562 340.265625 C 20.601562 348.058594 26.9375 354.386719 34.726562 354.386719 L 341.773438 354.386719 C 349.566406 354.386719 355.898438 348.058594 355.898438 340.265625 L 355.898438 33.21875 C 355.898438 25.429688 349.566406 19.09375 341.773438 19.09375 " fill-opacity="1" fill-rule="nonzero"/></svg>